<svg enable-background="new 0 0 562.446 561.946" viewBox="0 0 562.446 561.946" xmlns="http://www.w3.org/2000/svg"><g fill="#fff"><path d="m204 80c33.121 0 64.261 12.898 87.681 36.319s36.319 54.559 36.319 87.681-12.898 64.261-36.319 87.681-54.56 36.319-87.681 36.319-64.261-12.898-87.681-36.319-36.319-54.56-36.319-87.681 12.898-64.261 36.319-87.681 54.559-36.319 87.681-36.319m0-80c-112.666 0-204 91.334-204 204s91.334 204 204 204 204-91.334 204-204-91.334-204-204-204z"/><path d="m411.471 284.485h27.11v280.083h-27.11z" transform="matrix(.7071 -.7071 .7071 .7071 -175.6982 424.8802)"/><path d="m335.587 287.107c-5.299 0-10.598 2.01-14.618 6.03l-27.333 27.333c-8.04 8.04-8.04 21.195 0 29.235l206.212 206.212c4.02 4.02 9.319 6.03 14.618 6.03s10.598-2.01 14.618-6.03l27.333-27.333c8.039-8.04 8.039-21.195 0-29.235l-206.212-206.213c-4.02-4.02-9.319-6.029-14.618-6.029z"/></g></svg>